<svg width="22" height="22" viewBox="0 0 22 22" fill="none" xmlns="http://www.w3.org/2000/svg">
<path d="M10.1874 15.0625C10.0805 15.0631 9.97448 15.0427 9.87548 15.0022C9.77649 14.9618 9.68645 14.9022 9.61053 14.8269L6.36053 11.5769C6.20753 11.4239 6.12158 11.2164 6.12158 11C6.12158 10.7837 6.20753 10.5761 6.36053 10.4232C6.51353 10.2702 6.72104 10.1842 6.93741 10.1842C7.15378 10.1842 7.36128 10.2702 7.51428 10.4232L10.1874 13.1044L15.298 7.98565C15.451 7.83266 15.6585 7.7467 15.8749 7.7467C16.0913 7.7467 16.2988 7.83266 16.4518 7.98565C16.6048 8.13865 16.6907 8.34616 16.6907 8.56253C16.6907 8.7789 16.6048 8.98641 16.4518 9.1394L10.7643 14.8269C10.6884 14.9022 10.5983 14.9618 10.4993 15.0022C10.4003 15.0427 10.2943 15.0631 10.1874 15.0625Z" fill="#34383D"/>
<path d="M11 21.5625C8.91094 21.5625 6.86879 20.943 5.13179 19.7824C3.3948 18.6218 2.04098 16.9721 1.24153 15.0421C0.442077 13.1121 0.232904 10.9883 0.64046 8.93936C1.04802 6.89044 2.054 5.00838 3.53119 3.53119C5.00838 2.054 6.89044 1.04802 8.93936 0.64046C10.9883 0.232904 13.1121 0.442077 15.0421 1.24153C16.9721 2.04098 18.6218 3.3948 19.7824 5.13179C20.943 6.86879 21.5625 8.91094 21.5625 11C21.5625 13.8014 20.4497 16.488 18.4688 18.4688C16.488 20.4497 13.8014 21.5625 11 21.5625ZM11 2.0625C9.23233 2.0625 7.50436 2.58668 6.0346 3.56874C4.56483 4.55081 3.41929 5.94666 2.74283 7.57977C2.06637 9.21289 1.88938 11.0099 2.23424 12.7436C2.57909 14.4773 3.43031 16.0698 4.68024 17.3198C5.93017 18.5697 7.52268 19.4209 9.25638 19.7658C10.9901 20.1106 12.7871 19.9336 14.4202 19.2572C16.0534 18.5807 17.4492 17.4352 18.4313 15.9654C19.4133 14.4956 19.9375 12.7677 19.9375 11C19.9375 8.62963 18.9959 6.35634 17.3198 4.68024C15.6437 3.00413 13.3704 2.0625 11 2.0625Z" fill="#34383D"/>
</svg>
