<svg width="26" height="26" viewBox="0 0 26 26" fill="none" xmlns="http://www.w3.org/2000/svg">
<g clip-path="url(#clip0_8_311)">
<path d="M13 26C5.85 26 0 20.15 0 13C0 5.85 5.85 0 13 0C20.15 0 26 5.85 26 13C26 20.15 20.15 26 13 26ZM13 2.16667C7.04167 2.16667 2.16667 7.04167 2.16667 13C2.16667 18.9583 7.04167 23.8333 13 23.8333C18.9583 23.8333 23.8333 18.9583 23.8333 13C23.8333 7.04167 18.9583 2.16667 13 2.16667Z" fill="#34383D"/>
<path d="M8.66658 18.4166C8.34159 18.4166 8.12492 18.3083 7.90825 18.0916C7.47492 17.6583 7.47492 17.0083 7.90825 16.575L16.5749 7.90831C17.0083 7.47498 17.6583 7.47498 18.0916 7.90831C18.5249 8.34165 18.5249 8.99165 18.0916 9.42498L9.42492 18.0916C9.20825 18.3083 8.99159 18.4166 8.66658 18.4166Z" fill="#34383D"/>
<path d="M17.3333 18.4166C17.0083 18.4166 16.7916 18.3083 16.5749 18.0916L7.90825 9.42498C7.47492 8.99165 7.47492 8.34165 7.90825 7.90831C8.34159 7.47498 8.99158 7.47498 9.42492 7.90831L18.0916 16.575C18.5249 17.0083 18.5249 17.6583 18.0916 18.0916C17.8749 18.3083 17.6583 18.4166 17.3333 18.4166Z" fill="#34383D"/>
</g>
<defs>
<clipPath id="clip0_8_311">
<rect width="26" height="26" fill="white"/>
</clipPath>
</defs>
</svg>
