<svg width="40" height="40" viewBox="0 0 40 40" fill="none" xmlns="http://www.w3.org/2000/svg">
<rect width="40" height="40" rx="20" fill="#62707A"/>
<path d="M30.676 12.5C28.4289 9.3 24.9562 7.3 21.1771 7C20.8707 7 20.5643 7 20.2579 7C16.4787 7 12.9039 8.6 10.3504 11.3C7.79693 14 6.6734 17.7 7.08195 21.4C7.79693 27.4 12.6996 32.2 18.8279 32.8C19.2365 33 19.7472 33 20.2579 33C22.9135 33 25.3648 32.3 27.6118 30.8C28.1225 30.5 28.2247 29.9 27.9183 29.4C27.6118 28.9 26.999 28.8 26.4883 29.1C24.2413 30.5 21.6878 31.2 19.0322 30.9C13.8231 30.4 9.73756 26.3 9.12473 21.2C8.71617 18.1 9.73756 15 11.8825 12.7C14.2317 10.2 17.6022 8.8 21.075 9.1C24.3434 9.3 27.2033 11 29.0418 13.7C30.9824 16.6 31.4931 20 30.3696 23.3V23.4C30.0632 24.4 29.0418 25.1 27.9183 25.1C26.4883 25.1 25.3648 24 25.3648 22.6V21V19V15C25.3648 14.4 24.9562 14 24.3434 14C23.7306 14 23.322 14.4 23.322 15C22.5049 14.4 21.3814 14 20.2579 14C17.398 14 15.1509 16.2 15.1509 19V21C15.1509 23.8 17.398 26 20.2579 26C21.6878 26 22.9135 25.4 23.8327 24.6C24.5477 26 26.0798 27 27.9183 27C29.8589 27 31.5952 25.8 32.3102 23.9V23.8C33.638 20 33.0252 15.9 30.676 12.5ZM23.322 21C23.322 22.7 21.9942 24 20.2579 24C18.5215 24 17.1937 22.7 17.1937 21V19C17.1937 17.3 18.5215 16 20.2579 16C21.9942 16 23.322 17.3 23.322 19V21Z" fill="#34383D"/>
</svg>
