<svg width="40" height="40" viewBox="0 0 40 40" fill="none" xmlns="http://www.w3.org/2000/svg">
<path fill-rule="evenodd" clip-rule="evenodd" d="M19.9979 0C8.95408 0 0 9.18058 0 20.5072C0 29.5666 5.72998 37.2522 13.6779 39.9648C14.6782 40.1526 15.0428 39.5194 15.0428 38.975C15.0428 38.4895 15.0261 37.1993 15.0161 35.4885C9.45259 36.7274 8.27913 32.7392 8.27913 32.7392C7.36949 30.3713 6.05788 29.7407 6.05788 29.7407C4.24193 28.4676 6.1952 28.4932 6.1952 28.4932C8.20257 28.6391 9.25868 30.6068 9.25868 30.6068C11.043 33.7401 13.94 32.8347 15.0794 32.3108C15.2616 30.9856 15.7768 30.082 16.3494 29.5692C11.9085 29.0521 7.23883 27.2917 7.23883 19.4346C7.23883 17.1964 8.01864 15.3652 9.2978 13.9317C9.09223 13.4129 8.40563 11.3283 9.49337 8.50477C9.49337 8.50477 11.1728 7.95354 14.9937 10.6073C16.5891 10.1525 18.3001 9.92465 20.0004 9.91697C21.699 9.92465 23.4101 10.1525 25.008 10.6073C28.8263 7.95354 30.5025 8.50477 30.5025 8.50477C31.5935 11.3283 30.9069 13.4129 30.7014 13.9317C31.983 15.3652 32.7578 17.1964 32.7578 19.4346C32.7578 27.3122 28.0806 29.0452 23.6248 29.553C24.3439 30.1861 24.983 31.437 24.983 33.351C24.983 36.0917 24.9589 38.3035 24.9589 38.975C24.9589 39.5245 25.3184 40.1628 26.3338 39.9623C34.275 37.2445 40 29.564 40 20.5072C40 9.18058 31.0451 0 19.9979 0Z" fill="#62707A"/>
</svg>
