<svg width="40" height="40" viewBox="0 0 40 40" fill="none" xmlns="http://www.w3.org/2000/svg">
<g clip-path="url(#clip0_8_67)">
<path d="M2.11777 11.1316C3.38405 8.55282 5.17318 6.37321 7.42798 4.56086C10.4834 2.09384 13.9881 0.608831 17.9177 0.153749C22.5335 -0.381173 26.8715 0.473105 30.8828 2.82037C31.8795 3.4032 32.8108 4.06586 33.7013 4.78441C33.9219 4.96006 33.8974 5.06385 33.7095 5.2395C31.8877 7.01192 30.0658 8.78435 28.2604 10.5727C28.048 10.7803 27.9336 10.7644 27.7048 10.5967C22.411 6.61273 14.6907 7.69056 10.7448 12.9599C10.0504 13.8861 9.48671 14.8841 9.09457 15.9699C9.06189 16.0657 8.99654 16.1535 8.94752 16.2493C7.89365 15.4669 6.8316 14.6845 5.7859 13.8941C4.56047 12.9759 3.33503 12.0578 2.11777 11.1316Z" fill="#62707A"/>
<path d="M8.94754 23.7382C9.29883 24.4966 9.59294 25.287 10.0341 25.9976C11.8886 28.9676 14.5355 30.8758 18.0239 31.5544C21.1692 32.1692 24.1919 31.754 27.0104 30.2131C27.1085 30.1652 27.2065 30.1173 27.2964 30.0694C27.3454 30.1173 27.3862 30.1732 27.4353 30.2131C29.543 31.8099 31.6589 33.4067 33.7667 35.0035C32.7536 35.9855 31.6017 36.7759 30.3763 37.4625C26.8225 39.4425 22.9747 40.2409 18.9226 39.9375C13.8738 39.5543 9.51941 37.6062 5.9248 34.0933C4.34808 32.5524 3.04912 30.8119 2.10962 28.8239C2.98376 28.1692 3.85791 27.5225 4.73205 26.8679C6.13721 25.822 7.54238 24.7841 8.94754 23.7382Z" fill="#62707A"/>
<path d="M33.7749 35.0035C31.6671 33.4067 29.5512 31.8099 27.4435 30.2131C27.3944 30.1732 27.3454 30.1173 27.3046 30.0694C28.0317 29.5185 28.7751 28.9836 29.3715 28.281C30.3682 27.1154 31.0299 25.798 31.373 24.321C31.4139 24.1374 31.3812 24.0735 31.1933 24.0815C31.0953 24.0895 31.0054 24.0815 30.9074 24.0815C27.5742 24.0815 24.2328 24.0735 20.8996 24.0895C20.532 24.0895 20.4503 23.9937 20.4585 23.6503C20.4748 21.335 20.4748 19.0197 20.4585 16.7043C20.4585 16.4089 20.5402 16.3291 20.8425 16.3291C26.9533 16.3371 33.0641 16.3371 39.1831 16.3291C39.4445 16.3291 39.5508 16.393 39.6161 16.6644C40.1145 18.86 40.0818 21.0636 39.7795 23.2831C39.5344 25.0555 39.0933 26.7721 38.4152 28.4327C37.4103 30.8838 35.9316 33.0234 33.9873 34.8597C33.9138 34.9156 33.8402 34.9556 33.7749 35.0035Z" fill="#62707A"/>
<path d="M8.94752 23.7383C7.54236 24.7841 6.13719 25.8221 4.73203 26.8679C3.85788 27.5146 2.98374 28.1693 2.1096 28.824C1.43152 27.5945 0.990368 26.2931 0.630908 24.9518C-0.0553356 22.357 -0.16154 19.7223 0.21426 17.0797C0.508364 15.0039 1.12108 13.0079 2.1096 11.1396C3.33503 12.0578 4.5523 12.9839 5.77773 13.9021C6.8316 14.6925 7.88548 15.4749 8.93935 16.2573C8.75962 17.1116 8.50636 17.9499 8.42467 18.8281C8.27762 20.4249 8.43284 21.9818 8.8985 23.5147C8.93118 23.5786 8.93935 23.6584 8.94752 23.7383Z" fill="#62707A"/>
</g>
<defs>
<clipPath id="clip0_8_67">
<rect width="40" height="40" fill="white"/>
</clipPath>
</defs>
</svg>
