<svg width="32" height="34" viewBox="0 0 32 34" fill="none" xmlns="http://www.w3.org/2000/svg">
<path d="M14.5 13.748C14.5 14.5764 15.1716 15.248 16 15.248C16.8284 15.248 17.5 14.5764 17.5 13.748H14.5ZM17.5 2C17.5 1.17158 16.8284 0.5 16 0.5C15.1716 0.5 14.5 1.17158 14.5 2H17.5ZM10.6216 7.32312C11.3756 6.97982 11.7084 6.0903 11.3652 5.33636C11.0218 4.58242 10.1323 4.24956 9.37832 4.59288L10.6216 7.32312ZM1.99996 18.32L0.499756 18.3122L0.500056 18.3374L1.99996 18.32ZM16 32L16.0172 30.5C16.0058 30.5 15.9942 30.5 15.9828 30.5L16 32ZM30 18.32L31.5002 18.3374L31.5 18.3122L30 18.32ZM22.6216 4.59288C21.8676 4.24956 20.9782 4.58242 20.6348 5.33636C20.2916 6.0903 20.6244 6.97982 21.3784 7.32312L22.6216 4.59288ZM17.5 13.748V2H14.5V13.748H17.5ZM9.37832 4.59288C3.99682 7.04342 0.530736 12.399 0.499756 18.3122L3.49994 18.3278C3.5248 13.5847 6.30488 9.2888 10.6216 7.32312L9.37832 4.59288ZM0.500056 18.3374C0.598656 26.8092 7.54552 33.5972 16.0172 33.5L15.9828 30.5C9.16764 30.5784 3.57918 25.1176 3.49986 18.3026L0.500056 18.3374ZM15.9828 33.5C24.4544 33.5972 31.4018 26.8092 31.5002 18.3374L28.5002 18.3026C28.4208 25.1176 22.8324 30.5784 16.0172 30.5L15.9828 33.5ZM31.5 18.3122C31.469 12.399 28.0032 7.04342 22.6216 4.59288L21.3784 7.32312C25.695 9.2888 28.4752 13.5847 28.5 18.3278L31.5 18.3122Z" fill="black"/>
</svg>
