<svg width="14" height="24" viewBox="0 0 14 24" fill="none" xmlns="http://www.w3.org/2000/svg">
<path d="M12.25 13.5C12.25 15.75 10 18 7.75 18H6.25C4 18 1.75 15.75 1.75 13.5V9H0.25V13.5C0.25 16.5 3.25 19.5 6.25 19.5V22.5H1.75V24H12.25V22.5H7.75V19.5C10.75 19.5 13.75 16.5 13.75 13.5V9H12.25V13.5Z" fill="#34383D"/>
<path d="M7.7425 16.5C9.4045 16.5 10.75 15.15 10.75 13.512V2.988C10.75 1.338 9.409 0 7.7425 0H6.2575C4.5955 0 3.25 1.35 3.25 2.988V13.512C3.25 15.162 4.591 16.5 6.2575 16.5H7.7425Z" fill="#34383D"/>
</svg>
