<svg width="40" height="40" viewBox="0 0 40 40" fill="none" xmlns="http://www.w3.org/2000/svg">
<g clip-path="url(#clip0_8_94)">
<path d="M20.0001 40.0003C31.0459 40.0003 40.0003 31.0459 40.0003 20.0001C40.0003 8.95436 31.0459 0 20.0001 0C8.95436 0 0 8.95436 0 20.0001C0 31.0459 8.95436 40.0003 20.0001 40.0003Z" fill="#62707A"/>
<path d="M22.5729 25.522C23.8533 25.229 25.0888 24.7231 26.2233 24.0093C27.0827 23.4658 27.3436 22.3295 26.8006 21.4685C26.2571 20.6055 25.1225 20.3454 24.2616 20.8879C21.6852 22.5072 18.3719 22.5054 15.7955 20.8879C14.9325 20.3456 13.7998 20.6057 13.2565 21.4685C12.7132 22.3279 12.9741 23.4658 13.8335 24.0093C14.968 24.7231 16.202 25.229 17.4824 25.522L13.9739 29.0341C13.2531 29.7549 13.2531 30.918 13.9739 31.637C14.3345 31.9957 14.8048 32.1766 15.2735 32.1766C15.7457 32.1766 16.2144 31.9957 16.5768 31.637L20.0302 28.1851L23.4837 31.637C24.2045 32.3578 25.366 32.3578 26.0868 31.637C26.8076 30.9178 26.8076 29.7513 26.0868 29.0341L22.5729 25.522ZM20.0302 11.5074C21.4666 11.5074 22.6331 12.6749 22.6331 14.1113C22.6331 15.5443 21.4666 16.7118 20.0302 16.7118C18.5972 16.7118 17.4256 15.5443 17.4256 14.1113C17.4256 12.6749 18.5972 11.5074 20.0302 11.5074ZM20.0302 20.3934C23.4964 20.3934 26.3139 17.5738 26.3139 14.1113C26.3139 10.6417 23.4964 7.82239 20.0302 7.82239C16.5625 7.82239 13.7447 10.642 13.7447 14.1079C13.7447 17.5738 16.5625 20.3934 20.0302 20.3934Z" fill="#34383D"/>
</g>
<defs>
<clipPath id="clip0_8_94">
<rect width="40" height="40" fill="white"/>
</clipPath>
</defs>
</svg>
