<svg width="26" height="26" viewBox="0 0 26 26" fill="none" xmlns="http://www.w3.org/2000/svg">
<g clip-path="url(#clip0_8_187)">
<mask id="mask0_8_187" style="mask-type:luminance" maskUnits="userSpaceOnUse" x="0" y="0" width="26" height="26">
<path d="M26 0H0V26H26V0Z" fill="white"/>
</mask>
<g mask="url(#mask0_8_187)">
<path fill-rule="evenodd" clip-rule="evenodd" d="M24.531 0.0557557L1.11425 9.05732C0.895894 9.14171 0.708733 9.29114 0.578112 9.48541C0.447492 9.67969 0.379723 9.9094 0.383978 10.1435C0.388234 10.3775 0.464309 10.6046 0.601904 10.794C0.7395 10.9834 0.931971 11.1259 1.15325 11.2023L6.35325 13.0242C6.58174 13.1042 6.8251 13.1328 7.0659 13.1077C7.30671 13.0827 7.53898 13.0047 7.74611 12.8793L19.1081 6.02832C19.1846 5.98929 19.2725 5.97799 19.3564 5.99636C19.4404 6.01475 19.5152 6.06168 19.5685 6.12915C19.6218 6.1966 19.6498 6.28043 19.6482 6.36636C19.6465 6.45227 19.6151 6.53497 19.5594 6.60032L11.0351 15.2583C10.8841 15.3917 10.7629 15.5554 10.6793 15.7387C10.5958 15.9221 10.5519 16.121 10.5504 16.3225L10.5095 25.2572C10.5203 25.4316 10.5883 25.5976 10.7031 25.7295C10.8179 25.8613 10.9731 25.9514 11.1444 25.9859C11.3158 26.0205 11.4937 25.9975 11.6506 25.9204C11.8075 25.8433 11.9345 25.7167 12.012 25.5599L15.1431 19.2085C15.3281 18.9126 15.6214 18.7007 15.9604 18.6183C16.2994 18.5357 16.6572 18.5889 16.9575 18.7665L22.5123 21.8308C22.69 21.9283 22.8894 21.9795 23.0922 21.9795C23.295 21.9795 23.4945 21.9285 23.6724 21.8308C23.8501 21.7333 24.0004 21.5923 24.1092 21.4213C24.218 21.2502 24.2821 21.0545 24.2951 20.8521L25.61 0.776327C25.6105 0.64783 25.5791 0.521214 25.5188 0.407781C25.4584 0.294349 25.3708 0.197634 25.264 0.126271C25.1572 0.0549085 25.0343 0.0111199 24.9063 -0.00118474C24.7785 -0.0134894 24.6495 0.00607305 24.531 0.0557557Z" fill="#34383D"/>
</g>
</g>
<defs>
<clipPath id="clip0_8_187">
<rect width="26" height="26" fill="white"/>
</clipPath>
</defs>
</svg>
