<svg width="13" height="6" viewBox="0 0 13 6" fill="none" xmlns="http://www.w3.org/2000/svg">
<path d="M6.24 5.6491C6.14879 5.64948 6.05838 5.63687 5.97395 5.61199C5.88951 5.58711 5.81271 5.55044 5.74796 5.5041L0.203811 1.5041C0.139195 1.45748 0.0879389 1.40214 0.0529689 1.34123C0.017999 1.28032 0 1.21503 0 1.1491C0 1.01595 0.073313 0.888254 0.203811 0.794102C0.334309 0.69995 0.511302 0.647057 0.695854 0.647057C0.880406 0.647057 1.0574 0.69995 1.1879 0.794102L6.24 4.4441L11.2921 0.794102C11.4226 0.69995 11.5996 0.647057 11.7841 0.647057C11.9687 0.647057 12.1457 0.69995 12.2762 0.794102C12.4067 0.888254 12.48 1.01595 12.48 1.1491C12.48 1.28225 12.4067 1.40995 12.2762 1.5041L6.73204 5.5041C6.66729 5.55044 6.59049 5.58711 6.50605 5.61199C6.42162 5.63687 6.33121 5.64948 6.24 5.6491Z" fill="white"/>
</svg>
